<?xml version="1.0"?>
<svg xmlns="http://www.w3.org/2000/svg" height="512px" viewBox="0 -72 496 496" width="512px" class=""><g transform="matrix(-4.28626e-16 1 -1 -4.28626e-16 424 -72)"><path d="m232 176c0 30.929688-25.070312 56-56 56s-56-25.070312-56-56 25.070312-56 56-56 56 25.070312 56 56zm0 0" fill="#f0bc5e" data-original="#F0BC5E" class="" style="fill:#DBDBDB" data-old_color="#f0bc5e"/><path d="m64 176c0-61.855469 50.144531-112 112-112h48l-9.222656-64h-77.554688l-5.09375 30.609375c-9.703125 2.917969-19.058594 6.789063-27.914062 11.542969l-25.238282-18.03125-54.839843 54.839844 18.03125 25.230468c-4.761719 8.863282-8.625 18.222656-11.542969 27.921875l-30.625 5.109375v77.546875l30.609375 5.101563c2.917969 9.703125 6.789063 19.058594 11.542969 27.914062l-18.03125 25.238282 54.839844 54.839843 25.238281-18.03125c8.855469 4.761719 18.207031 8.625 27.914062 11.542969l5.101563 30.625h77.554687l9.230469-64h-48c-61.855469 0-112-50.144531-112-112zm0 0" fill="#f0bc5e" data-original="#F0BC5E" class="" style="fill:#DBDBDB" data-old_color="#f0bc5e"/><path d="m168 32h16v16h-16zm0 0" data-original="#000000" class="active-path" style="fill:#DBDBDB" data-old_color="#000000"/><path d="m68.523438 79.824219 11.316406-11.3125 11.3125 11.3125-11.316406 11.3125zm0 0" data-original="#000000" class="active-path" style="fill:#DBDBDB" data-old_color="#000000"/><path d="m32 168h16v16h-16zm0 0" data-original="#000000" class="active-path" style="fill:#DBDBDB" data-old_color="#000000"/><path d="m68.519531 272.167969 11.3125-11.3125 11.3125 11.3125-11.3125 11.3125zm0 0" data-original="#000000" class="active-path" style="fill:#DBDBDB" data-old_color="#000000"/><path d="m168 304h16v16h-16zm0 0" data-original="#000000" class="active-path" style="fill:#DBDBDB" data-old_color="#000000"/><path d="m176 88c-48.519531 0-88 39.480469-88 88s39.480469 88 88 88 88-39.480469 88-88-39.480469-88-88-88zm52.59375 38.992188c-4.136719 3-10.394531 6.929687-18.546875 10.273437-3.277344-11.425781-7.375-21.59375-10.96875-29.394531 11.394531 3.863281 21.480469 10.503906 29.515625 19.121094zm-28.59375 49.007812c0 6.113281-.886719 12.246094-2.273438 18.246094-6.648437-1.390625-13.894531-2.246094-21.726562-2.246094-8.054688 0-15.511719.894531-22.304688 2.359375-1.039062-6.039063-1.695312-12.207031-1.695312-18.359375 0-6.113281.886719-12.246094 2.273438-18.246094 6.648437 1.390625 13.894531 2.246094 21.726562 2.246094 8.054688 0 15.511719-.894531 22.304688-2.359375 1.039062 6.039063 1.695312 12.207031 1.695312 18.359375zm-27.601562 71.433594c-3.589844-6.800782-10.390626-20.769532-15.152344-37.441406 5.730468-1.230469 12-1.992188 18.753906-1.992188 6.089844 0 11.742188.648438 17 1.671875-6.585938 17.136719-16.046875 31.40625-20.601562 37.761719zm3.601562-103.433594c-6.089844 0-11.742188-.648438-17-1.671875 6.585938-17.136719 16.046875-31.40625 20.59375-37.761719 3.589844 6.800782 10.390625 20.769532 15.148438 37.441406-5.71875 1.230469-11.988282 1.992188-18.742188 1.992188zm-16.601562-37.992188c-5.117188 8.25-11.167969 19.289063-15.847657 31.863282-8.910156-3.464844-15.742187-7.6875-20.152343-10.878906 9.539062-10.222657 21.96875-17.65625 36-20.984376zm-45.566407 33.847657c5.519531 4.039062 13.992188 9.265625 25.023438 13.402343-1.757813 7.382813-2.855469 15.039063-2.855469 22.742188 0 7.785156.839844 15.527344 2.214844 22.992188-10.71875 4.097656-18.976563 9.199218-24.382813 13.160156-6.207031-10.648438-9.832031-22.96875-9.832031-36.152344s3.625-25.503906 9.832031-36.144531zm9.574219 85.152343c4.136719-3 10.394531-6.929687 18.546875-10.273437 3.277344 11.425781 7.375 21.59375 10.96875 29.394531-11.394531-3.863281-21.480469-10.503906-29.515625-19.121094zm69.195312 20.984376c5.117188-8.25 11.167969-19.289063 15.839844-31.863282 8.910156 3.464844 15.742188 7.6875 20.152344 10.878906-9.53125 10.222657-21.953125 17.65625-35.992188 20.984376zm45.566407-33.847657c-5.519531-4.039062-13.992188-9.265625-25.023438-13.402343 1.757813-7.382813 2.855469-15.039063 2.855469-22.742188 0-7.785156-.839844-15.527344-2.214844-22.992188 10.71875-4.097656 18.976563-9.199218 24.382813-13.160156 6.207031 10.648438 9.832031 22.96875 9.832031 36.152344s-3.625 25.503906-9.832031 36.144531zm0 0" data-original="#000000" class="active-path" style="fill:#DBDBDB" data-old_color="#000000"/><path d="m416 56h16v16h-16zm0 0" data-original="#000000" class="active-path" style="fill:#DBDBDB" data-old_color="#000000"/><path d="m416 280h16v16h-16zm0 0" data-original="#000000" class="active-path" style="fill:#DBDBDB" data-old_color="#000000"/><path d="m288.574219 217.457031c2.082031-5.65625 7.839843-9.457031 14.335937-9.457031h81.089844v-16h-81.089844c-13.167968 0-24.957031 8.007812-29.351562 19.929688-14.992188 40.71875-54.191406 68.070312-97.558594 68.070312-28.726562 0-55.472656-11.457031-75.296875-32.265625-19.816406-20.78125-29.960937-48.085937-28.574219-76.878906 2.445313-51.0625 42.558594-93.335938 93.296875-98.335938 47.183594-4.664062 91.671875 23.046875 108.078125 67.375 4.441406 12.027344 16.214844 20.105469 29.289063 20.105469h81.207031v-16h-81.207031c-6.410157 0-12.152344-3.878906-14.289063-9.65625-10.023437-27.085938-29.175781-48.710938-53.015625-62.34375h164.511719v-16h-224v.078125c-4.023438-.007813-8.070312.121094-12.144531.523437-58.582031 5.765626-104.886719 54.558594-107.71875 113.496094-1.59375 33.199219 10.121093 64.695313 32.976562 88.679688 22.886719 24.007812 53.734375 37.222656 86.886719 37.222656h224v-16h-164.441406c23.945312-13.761719 43.097656-35.59375 53.015625-62.542969zm0 0" data-original="#000000" class="active-path" style="fill:#DBDBDB" data-old_color="#000000"/><path d="m400 144h16v16h-16zm0 0" data-original="#000000" class="active-path" style="fill:#DBDBDB" data-old_color="#000000"/><path d="m400 192h16v16h-16zm0 0" data-original="#000000" class="active-path" style="fill:#DBDBDB" data-old_color="#000000"/><path d="m304 88h160v16h-160zm0 0" data-original="#000000" class="active-path" style="fill:#DBDBDB" data-old_color="#000000"/><path d="m480 88h16v16h-16zm0 0" data-original="#000000" class="active-path" style="fill:#DBDBDB" data-old_color="#000000"/><path d="m304 248h160v16h-160zm0 0" data-original="#000000" class="active-path" style="fill:#DBDBDB" data-old_color="#000000"/><path d="m480 248h16v16h-16zm0 0" data-original="#000000" class="active-path" style="fill:#DBDBDB" data-old_color="#000000"/></g> </svg>
