<?xml version="1.0" encoding="utf-8"?>
<!-- Generator: Adobe Illustrator 16.0.0, SVG Export Plug-In . SVG Version: 6.00 Build 0)  -->
<!DOCTYPE svg PUBLIC "-//W3C//DTD SVG 1.1//EN" "http://www.w3.org/Graphics/SVG/1.1/DTD/svg11.dtd">
<svg version="1.1" id="Layer_1" xmlns="http://www.w3.org/2000/svg" xmlns:xlink="http://www.w3.org/1999/xlink" x="0px" y="0px"
	 width="94.559px" height="27.332px" viewBox="0 0 94.559 27.332" enable-background="new 0 0 94.559 27.332" xml:space="preserve">
<title>outline-logotype</title>
<desc>Created with Sketch.</desc>
<g id="Page-1">
	<g id="feedback---003" transform="translate(-140.000000, -44.000000)">
		<g id="outline-logotype" transform="translate(134.027344, 38.716797)">
			<rect id="Rectangle-2" x="2.185" y="-40.598" fill="none" width="76" height="24"/>
			<path id="Outline" fill="#FFFFFF" d="M14.752-21.533c-1.248,0-2.382-0.297-3.402-0.891c-1.02-0.594-1.821-1.406-2.403-2.439
				c-0.581-1.031-0.872-2.166-0.872-3.401c0-1.236,0.291-2.367,0.872-3.393c0.582-1.026,1.384-1.839,2.403-2.439
				c1.021-0.6,2.154-0.9,3.402-0.9s2.379,0.3,3.393,0.9c1.015,0.6,1.815,1.413,2.403,2.439c0.588,1.026,0.882,2.157,0.882,3.393
				c0,1.235-0.291,2.37-0.873,3.401c-0.582,1.033-1.383,1.846-2.403,2.439C17.134-21.831,16-21.533,14.752-21.533z M14.752-23.459
				c0.852,0,1.632-0.203,2.34-0.611c0.708-0.408,1.266-0.976,1.674-1.701c0.408-0.727,0.612-1.557,0.612-2.493
				s-0.204-1.767-0.612-2.493c-0.408-0.726-0.966-1.293-1.674-1.701s-1.488-0.612-2.34-0.612c-0.853,0-1.632,0.204-2.34,0.612
				s-1.27,0.975-1.684,1.701c-0.414,0.726-0.621,1.557-0.621,2.493c0,0.937,0.207,1.767,0.621,2.493s0.976,1.293,1.684,1.701
				C13.12-23.662,13.9-23.459,14.752-23.459z M27.208-21.533c-1.116,0-1.965-0.332-2.547-0.998
				c-0.582-0.666-0.873-1.594-0.873-2.781V-31h1.979v5.418c0,0.744,0.177,1.302,0.531,1.675c0.354,0.371,0.819,0.558,1.395,0.558
				c0.469,0,0.883-0.123,1.242-0.369c0.36-0.246,0.636-0.573,0.828-0.981c0.192-0.408,0.288-0.846,0.288-1.313v-4.986h1.98v9.181
				H30.16v-1.188h-0.108c-0.252,0.433-0.642,0.786-1.17,1.062C28.354-21.671,27.796-21.533,27.208-21.533z M38.639-21.677
				c-0.408,0-0.792-0.065-1.152-0.198c-0.359-0.132-0.653-0.306-0.882-0.521c-0.516-0.516-0.773-1.219-0.773-2.106v-4.752h-1.603
				V-31h1.603v-2.592h1.979V-31h2.232v1.746H37.81v4.32c0,0.491,0.097,0.84,0.288,1.044c0.18,0.24,0.492,0.359,0.937,0.359
				c0.203,0,0.384-0.026,0.54-0.08c0.155-0.055,0.323-0.142,0.504-0.262v1.926C39.682-21.767,39.202-21.677,38.639-21.677z
				 M42.473-34.709h1.979v12.889h-1.979V-34.709z M48.357-32.333c-0.371,0-0.687-0.129-0.943-0.387
				c-0.26-0.258-0.389-0.573-0.389-0.945s0.129-0.687,0.389-0.945c0.259-0.258,0.572-0.387,0.943-0.387
				c0.373,0,0.688,0.129,0.944,0.387c0.259,0.258,0.388,0.573,0.388,0.945s-0.129,0.688-0.388,0.945
				C49.044-32.463,48.73-32.333,48.357-32.333z M47.368-31.001h1.979v9.181h-1.979V-31.001z M52.264-31.001h1.891v1.206h0.092
				c0.264-0.432,0.656-0.789,1.18-1.071c0.521-0.282,1.076-0.423,1.664-0.423c1.116,0,1.966,0.327,2.548,0.981
				c0.581,0.654,0.872,1.545,0.872,2.673v5.814h-1.979v-5.545c0-0.72-0.177-1.248-0.53-1.583c-0.354-0.335-0.843-0.504-1.467-0.504
				c-0.444,0-0.842,0.123-1.188,0.369s-0.617,0.573-0.81,0.981c-0.192,0.407-0.288,0.846-0.288,1.313v4.969h-1.98v-9.18H52.264z
				 M67.385-21.533c-0.9,0-1.707-0.209-2.422-0.629c-0.714-0.421-1.271-1-1.674-1.738c-0.402-0.737-0.604-1.568-0.604-2.492
				c0-0.876,0.194-1.689,0.586-2.439c0.391-0.75,0.934-1.347,1.629-1.791s1.488-0.666,2.375-0.666c0.926,0,1.727,0.204,2.404,0.612
				c0.678,0.408,1.192,0.966,1.547,1.674s0.53,1.507,0.53,2.394c0,0.168-0.02,0.379-0.054,0.631h-7.038
				c0.07,0.852,0.375,1.509,0.909,1.971c0.532,0.462,1.153,0.693,1.86,0.693c0.564,0,1.055-0.129,1.469-0.387
				c0.414-0.259,0.746-0.609,0.998-1.054l1.676,0.792c-0.434,0.756-0.996,1.35-1.691,1.782
				C69.189-21.749,68.355-21.533,67.385-21.533z M69.742-27.49c-0.023-0.325-0.126-0.646-0.308-0.963
				c-0.181-0.318-0.453-0.585-0.817-0.801c-0.366-0.216-0.813-0.324-1.343-0.324c-0.635,0-1.172,0.189-1.609,0.567
				c-0.438,0.378-0.741,0.885-0.909,1.521H69.742z"/>
		</g>
	</g>
</g>
<g>
	<path fill="#FFFFFF" d="M130.387,99.457h-1.902l-3.708-6.082v6.082h-1.904v-9.242h1.904l3.713,6.094v-6.094h1.897V99.457
		L130.387,99.457z"/>
	<path fill="#FFFFFF" d="M134.038,97.978h3.358v1.479h-5.7V98.34l3.23-4.267h-3.136v-1.485h5.503v1.086L134.038,97.978z"/>
	<path fill="#FFFFFF" d="M142.657,98.758c-0.216,0.263-0.479,0.466-0.787,0.608c-0.309,0.144-0.673,0.216-1.092,0.216
		c-0.338,0-0.647-0.048-0.927-0.143c-0.279-0.096-0.521-0.246-0.721-0.451c-0.201-0.205-0.356-0.471-0.467-0.793
		c-0.11-0.324-0.165-0.713-0.165-1.165v-4.442h1.834v4.455c0,0.189,0.024,0.354,0.073,0.488c0.049,0.137,0.117,0.244,0.203,0.326
		c0.087,0.084,0.188,0.145,0.308,0.182c0.119,0.039,0.25,0.06,0.395,0.06c0.329,0,0.599-0.06,0.806-0.173
		c0.208-0.114,0.366-0.271,0.476-0.477v-4.861h1.842v6.867h-1.728L142.657,98.758z"/>
	<path fill="#FFFFFF" d="M149.677,94.309c-0.093-0.014-0.201-0.023-0.326-0.035c-0.125-0.01-0.236-0.018-0.333-0.018
		c-0.36,0-0.651,0.063-0.873,0.184c-0.224,0.119-0.387,0.295-0.492,0.521v4.494h-1.833v-6.867h1.732l0.052,0.818
		c0.173-0.298,0.387-0.527,0.641-0.695c0.254-0.166,0.55-0.25,0.889-0.25c0.098,0,0.2,0.01,0.309,0.024
		c0.106,0.017,0.194,0.035,0.263,0.058L149.677,94.309z"/>
	<path fill="#FFFFFF" d="M150.547,90.811c0-0.275,0.093-0.502,0.276-0.68c0.185-0.179,0.435-0.269,0.753-0.269
		c0.156,0,0.298,0.022,0.425,0.07c0.127,0.047,0.235,0.11,0.323,0.196c0.09,0.084,0.158,0.185,0.207,0.301
		c0.049,0.115,0.072,0.242,0.072,0.378c0,0.141-0.023,0.269-0.072,0.385c-0.049,0.115-0.117,0.217-0.207,0.302
		c-0.088,0.086-0.196,0.149-0.323,0.196s-0.269,0.069-0.425,0.069c-0.157,0-0.299-0.022-0.426-0.069s-0.234-0.11-0.324-0.196
		c-0.088-0.085-0.157-0.187-0.206-0.302C150.571,91.077,150.547,90.95,150.547,90.811z M152.496,99.457h-1.841v-6.869h1.841V99.457z
		"/>
	<path fill="#FFFFFF" d="M160.78,97.166l2.096-6.951h2.12l-3.22,9.242h-1.985l-3.205-9.242h2.112L160.78,97.166z"/>
	<path fill="#FFFFFF" d="M167.77,96.2v3.257h-1.904v-9.242h3.604c0.546,0,1.033,0.076,1.464,0.229s0.794,0.365,1.093,0.639
		c0.299,0.272,0.524,0.596,0.683,0.971c0.155,0.375,0.233,0.781,0.233,1.224c0,0.447-0.078,0.853-0.233,1.212
		c-0.156,0.36-0.384,0.667-0.683,0.921c-0.299,0.255-0.662,0.448-1.093,0.587s-0.918,0.207-1.464,0.207h-1.699V96.2z M167.77,94.657
		h1.699c0.271,0,0.505-0.034,0.701-0.103c0.196-0.066,0.356-0.162,0.481-0.281c0.125-0.121,0.218-0.268,0.275-0.436
		c0.061-0.17,0.089-0.354,0.089-0.554c0-0.198-0.028-0.391-0.089-0.573c-0.06-0.187-0.15-0.349-0.275-0.488
		c-0.125-0.143-0.285-0.256-0.481-0.34c-0.196-0.086-0.431-0.127-0.701-0.127h-1.699V94.657z"/>
	<path fill="#FFFFFF" d="M181.765,99.457h-1.903l-3.707-6.082v6.082h-1.903v-9.242h1.903l3.715,6.094v-6.094h1.896V99.457z"/>
</g>
<g>
	<path fill="#FFFFFF" d="M4.005,20.687V6.519h1.998l4.541,7.167c1.05,1.66,1.87,3.152,2.543,4.604l0.042-0.021
		c-0.167-1.892-0.21-3.618-0.21-5.823V6.519h1.724v14.167h-1.851l-4.499-7.19c-0.988-1.576-1.935-3.195-2.649-4.731L5.582,8.788
		c0.105,1.787,0.147,3.489,0.147,5.845v6.054H4.005z"/>
	<path fill="#FFFFFF" d="M16.85,19.614l4.604-5.992c0.44-0.545,0.862-1.03,1.323-1.576v-0.042H17.27v-1.493h7.756l-0.021,1.156
		l-4.541,5.908c-0.42,0.566-0.84,1.072-1.304,1.598v0.041h5.95v1.471h-8.262v-1.07H16.85z"/>
	<path fill="#FFFFFF" d="M35.518,17.912c0,1.051,0.022,1.976,0.084,2.774h-1.64l-0.106-1.658h-0.042
		c-0.485,0.818-1.557,1.89-3.364,1.89c-1.598,0-3.51-0.884-3.51-4.456v-5.951h1.85v5.633c0,1.937,0.588,3.238,2.271,3.238
		c1.241,0,2.103-0.862,2.438-1.683c0.105-0.271,0.167-0.608,0.167-0.945v-6.244h1.85L35.518,17.912L35.518,17.912z"/>
	<path fill="#FFFFFF" d="M38.587,13.686c0-1.196-0.022-2.227-0.084-3.174h1.619l0.063,1.998h0.083
		c0.463-1.367,1.577-2.228,2.818-2.228c0.211,0,0.357,0.021,0.525,0.062v1.747c-0.189-0.042-0.378-0.064-0.63-0.064
		c-1.304,0-2.229,0.989-2.481,2.376c-0.042,0.251-0.084,0.545-0.084,0.861v5.424h-1.829V13.686z"/>
	<path fill="#FFFFFF" d="M47.605,7.654c0.023,0.63-0.441,1.134-1.177,1.134c-0.652,0-1.114-0.504-1.114-1.134
		c0-0.652,0.483-1.156,1.156-1.156C47.164,6.497,47.605,7.002,47.605,7.654z M45.545,20.687V10.511h1.85v10.175H45.545z"/>
	<path fill="#FFFFFF" d="M57.338,20.687L52.712,6.519h1.977l2.207,6.978c0.61,1.913,1.136,3.637,1.515,5.297h0.042
		c0.399-1.641,0.989-3.428,1.618-5.277l2.396-7h1.956l-5.066,14.168h-2.019V20.687z"/>
	<path fill="#FFFFFF" d="M65.957,6.686c0.883-0.147,2.039-0.272,3.51-0.272c1.809,0,3.135,0.42,3.976,1.177
		c0.776,0.673,1.238,1.703,1.238,2.963c0,1.283-0.379,2.291-1.093,3.026c-0.967,1.031-2.545,1.555-4.331,1.555
		c-0.547,0-1.051-0.021-1.471-0.124v5.675h-1.829V6.686z M67.785,13.517c0.399,0.106,0.904,0.149,1.514,0.149
		c2.207,0,3.553-1.072,3.553-3.028c0-1.871-1.323-2.774-3.342-2.774c-0.8,0-1.409,0.061-1.724,0.146L67.785,13.517L67.785,13.517z"
		/>
	<path fill="#FFFFFF" d="M77.142,20.687V6.519h1.996l4.542,7.167c1.051,1.66,1.87,3.152,2.543,4.604l0.043-0.021
		c-0.168-1.892-0.21-3.618-0.21-5.823V6.519h1.724v14.167h-1.85l-4.499-7.19c-0.987-1.576-1.936-3.195-2.648-4.731l-0.063,0.022
		c0.105,1.787,0.147,3.489,0.147,5.845v6.054H77.142z"/>
</g>
</svg>
