<?xml version="1.0" encoding="utf-8"?>
<!-- Generator: Adobe Illustrator 16.0.0, SVG Export Plug-In . SVG Version: 6.00 Build 0)  -->
<!DOCTYPE svg PUBLIC "-//W3C//DTD SVG 1.1//EN" "http://www.w3.org/Graphics/SVG/1.1/DTD/svg11.dtd">
<svg version="1.1" id="Layer_1" xmlns="http://www.w3.org/2000/svg" xmlns:xlink="http://www.w3.org/1999/xlink" x="0px" y="0px"
	 width="94.559px" height="27.332px" viewBox="0 0 94.559 27.332" enable-background="new 0 0 94.559 27.332" xml:space="preserve">
<title>outline-logotype</title>
<desc>Created with Sketch.</desc>
<g id="Page-1">
	<g id="feedback---003" transform="translate(-140.000000, -44.000000)">
		<g id="outline-logotype" transform="translate(134.027344, 38.716797)">
			<rect id="Rectangle-2" x="2.185" y="-40.598" fill="none" width="76" height="24"/>
			<path id="Outline" fill="#FFFFFF" d="M14.752-21.533c-1.248,0-2.382-0.297-3.402-0.891c-1.02-0.594-1.821-1.406-2.403-2.439
				c-0.582-1.031-0.873-2.166-0.873-3.401c0-1.236,0.291-2.367,0.873-3.393c0.582-1.026,1.383-1.839,2.403-2.439
				c1.02-0.6,2.154-0.9,3.402-0.9s2.379,0.3,3.393,0.9c1.014,0.6,1.815,1.413,2.403,2.439c0.588,1.026,0.882,2.157,0.882,3.393
				c0,1.235-0.291,2.37-0.873,3.401c-0.582,1.033-1.383,1.846-2.403,2.439C17.134-21.831,16-21.533,14.752-21.533z M14.752-23.459
				c0.852,0,1.632-0.203,2.34-0.611c0.708-0.408,1.266-0.976,1.674-1.701c0.408-0.727,0.612-1.557,0.612-2.493
				s-0.204-1.767-0.612-2.493c-0.408-0.726-0.966-1.293-1.674-1.701s-1.488-0.612-2.34-0.612s-1.632,0.204-2.34,0.612
				s-1.269,0.975-1.683,1.701c-0.414,0.726-0.621,1.557-0.621,2.493c0,0.937,0.207,1.767,0.621,2.493s0.975,1.293,1.683,1.701
				C13.12-23.662,13.9-23.459,14.752-23.459z M27.208-21.533c-1.116,0-1.965-0.332-2.547-0.998
				c-0.582-0.666-0.873-1.594-0.873-2.781V-31h1.98v5.418c0,0.744,0.177,1.302,0.531,1.675c0.354,0.371,0.819,0.558,1.395,0.558
				c0.468,0,0.882-0.123,1.242-0.369c0.36-0.246,0.636-0.573,0.828-0.981c0.192-0.408,0.288-0.846,0.288-1.313v-4.986h1.98v9.181
				H30.16v-1.188h-0.108c-0.252,0.433-0.642,0.786-1.17,1.062C28.354-21.671,27.796-21.533,27.208-21.533z M38.639-21.677
				c-0.408,0-0.792-0.065-1.152-0.198c-0.36-0.132-0.654-0.306-0.882-0.521c-0.516-0.516-0.774-1.219-0.774-2.106v-4.752h-1.602V-31
				h1.602v-2.592h1.98V-31h2.232v1.746H37.81v4.32c0,0.491,0.096,0.84,0.288,1.044c0.18,0.24,0.492,0.359,0.936,0.359
				c0.204,0,0.384-0.026,0.54-0.08c0.156-0.055,0.324-0.142,0.504-0.262v1.926C39.682-21.767,39.202-21.677,38.639-21.677z
				 M42.473-34.709h1.979v12.889h-1.979V-34.709z M48.357-32.333c-0.371,0-0.687-0.129-0.944-0.387
				c-0.259-0.258-0.388-0.573-0.388-0.945s0.129-0.687,0.388-0.945c0.259-0.258,0.573-0.387,0.944-0.387
				c0.373,0,0.688,0.129,0.944,0.387c0.259,0.258,0.388,0.573,0.388,0.945s-0.129,0.688-0.388,0.945
				C49.044-32.463,48.73-32.333,48.357-32.333z M47.368-31.001h1.979v9.181h-1.979V-31.001z M52.264-31.001h1.891v1.206h0.091
				c0.264-0.432,0.657-0.789,1.18-1.071c0.521-0.282,1.076-0.423,1.664-0.423c1.116,0,1.966,0.327,2.548,0.981
				c0.581,0.654,0.872,1.545,0.872,2.673v5.814h-1.979v-5.545c0-0.72-0.176-1.248-0.53-1.583s-0.843-0.504-1.467-0.504
				c-0.444,0-0.841,0.123-1.188,0.369s-0.617,0.573-0.81,0.981c-0.192,0.407-0.288,0.846-0.288,1.313v4.969h-1.98v-9.18H52.264z
				 M67.385-21.533c-0.9,0-1.707-0.209-2.422-0.629c-0.714-0.421-1.271-1-1.674-1.738c-0.402-0.737-0.604-1.568-0.604-2.492
				c0-0.876,0.194-1.689,0.586-2.439c0.39-0.75,0.933-1.347,1.629-1.791c0.695-0.444,1.488-0.666,2.375-0.666
				c0.925,0,1.726,0.204,2.404,0.612c0.678,0.408,1.192,0.966,1.547,1.674c0.354,0.708,0.53,1.507,0.53,2.394
				c0,0.168-0.019,0.379-0.054,0.631h-7.038c0.071,0.852,0.375,1.509,0.909,1.971c0.533,0.462,1.154,0.693,1.861,0.693
				c0.564,0,1.055-0.129,1.469-0.387c0.414-0.259,0.746-0.609,0.998-1.054l1.675,0.792c-0.433,0.756-0.996,1.35-1.691,1.782
				C69.189-21.749,68.355-21.533,67.385-21.533z M69.742-27.49c-0.023-0.325-0.126-0.646-0.307-0.963
				c-0.181-0.318-0.453-0.585-0.818-0.801c-0.366-0.216-0.813-0.324-1.342-0.324c-0.635,0-1.172,0.189-1.61,0.567
				c-0.438,0.378-0.741,0.885-0.909,1.521H69.742z"/>
		</g>
	</g>
</g>
<g>
	<path fill="#FFFFFF" d="M10.068,40.181H8.165L4.457,34.1v6.081H2.553v-9.242h1.904l3.713,6.094v-6.094h1.898L10.068,40.181
		L10.068,40.181z"/>
	<path fill="#FFFFFF" d="M13.719,38.702h3.358v1.479h-5.7v-1.117l3.231-4.266h-3.136v-1.485h5.503v1.085L13.719,38.702z"/>
	<path fill="#FFFFFF" d="M22.338,39.482c-0.216,0.263-0.478,0.466-0.787,0.609c-0.309,0.144-0.673,0.216-1.092,0.216
		c-0.338,0-0.647-0.048-0.927-0.143c-0.279-0.096-0.52-0.246-0.72-0.451c-0.201-0.205-0.357-0.471-0.467-0.793
		c-0.11-0.324-0.165-0.713-0.165-1.165v-4.443h1.834v4.456c0,0.189,0.024,0.354,0.073,0.488c0.049,0.136,0.117,0.244,0.203,0.326
		c0.087,0.084,0.189,0.145,0.308,0.182c0.119,0.039,0.25,0.059,0.394,0.059c0.33,0,0.599-0.059,0.806-0.172
		c0.208-0.115,0.366-0.272,0.476-0.477v-4.862h1.841v6.868h-1.727L22.338,39.482z"/>
	<path fill="#FFFFFF" d="M29.358,35.033c-0.093-0.013-0.202-0.023-0.327-0.035c-0.125-0.01-0.236-0.017-0.333-0.017
		c-0.36,0-0.651,0.062-0.873,0.183c-0.223,0.119-0.386,0.295-0.492,0.522v4.494H25.5v-6.868h1.733l0.051,0.819
		c0.173-0.298,0.387-0.528,0.641-0.695c0.254-0.167,0.55-0.251,0.889-0.251c0.097,0,0.2,0.01,0.308,0.025
		c0.107,0.017,0.195,0.035,0.263,0.058L29.358,35.033z"/>
	<path fill="#FFFFFF" d="M30.228,31.535c0-0.275,0.093-0.502,0.276-0.68c0.185-0.178,0.435-0.268,0.753-0.268
		c0.156,0,0.298,0.023,0.425,0.07s0.235,0.111,0.323,0.196c0.09,0.084,0.158,0.185,0.207,0.302c0.049,0.115,0.072,0.241,0.072,0.377
		c0,0.141-0.023,0.269-0.072,0.385c-0.049,0.115-0.117,0.217-0.207,0.302c-0.088,0.085-0.196,0.149-0.323,0.196
		s-0.269,0.07-0.425,0.07c-0.157,0-0.299-0.023-0.426-0.07s-0.234-0.111-0.324-0.196c-0.088-0.085-0.157-0.187-0.206-0.302
		C30.251,31.802,30.228,31.675,30.228,31.535z M32.177,40.181h-1.841v-6.868h1.841V40.181z"/>
	<path fill="#FFFFFF" d="M40.46,37.89l2.096-6.951h2.12l-3.22,9.242h-1.985l-3.205-9.242h2.112L40.46,37.89z"/>
	<path fill="#FFFFFF" d="M47.45,36.925v3.256h-1.904v-9.242h3.604c0.546,0,1.033,0.076,1.464,0.229
		c0.43,0.152,0.793,0.365,1.092,0.638s0.525,0.597,0.683,0.972c0.155,0.375,0.233,0.781,0.233,1.223
		c0,0.447-0.078,0.853-0.233,1.212c-0.156,0.36-0.384,0.667-0.683,0.921s-0.662,0.448-1.092,0.587
		c-0.431,0.138-0.918,0.207-1.464,0.207h-1.7V36.925z M47.45,35.382h1.7c0.271,0,0.505-0.034,0.701-0.103
		c0.196-0.066,0.356-0.162,0.481-0.281c0.125-0.121,0.218-0.267,0.276-0.436c0.06-0.17,0.089-0.354,0.089-0.553
		s-0.029-0.391-0.089-0.574c-0.06-0.186-0.151-0.348-0.276-0.488c-0.125-0.142-0.285-0.256-0.481-0.34
		c-0.196-0.085-0.431-0.127-0.701-0.127h-1.7V35.382z"/>
	<path fill="#FFFFFF" d="M61.446,40.181h-1.904L55.835,34.1v6.081h-1.903v-9.242h1.903l3.715,6.094v-6.094h1.896V40.181z"/>
</g>
<g>
	<path fill="#FFFFFF" d="M7.503,19.652V7.003h1.783l4.054,6.399c0.938,1.482,1.67,2.815,2.271,4.11l0.038-0.019
		c-0.15-1.689-0.188-3.229-0.188-5.199V7.003H17v12.649h-1.652l-4.017-6.419c-0.882-1.407-1.727-2.853-2.365-4.223L8.911,9.029
		c0.094,1.596,0.131,3.115,0.131,5.218v5.405H7.503z"/>
	<path fill="#FFFFFF" d="M18.971,18.695l4.11-5.35c0.394-0.487,0.77-0.919,1.182-1.407v-0.037h-4.917v-1.333h6.925l-0.019,1.032
		l-4.054,5.274c-0.375,0.507-0.75,0.957-1.164,1.426v0.038h5.312v1.313h-7.376V18.695z"/>
	<path fill="#FFFFFF" d="M35.637,17.175c0,0.938,0.019,1.765,0.075,2.478h-1.464l-0.094-1.482h-0.038
		c-0.432,0.731-1.389,1.688-3.002,1.688c-1.427,0-3.134-0.788-3.134-3.979v-5.312h1.651v5.03c0,1.727,0.525,2.89,2.027,2.89
		c1.108,0,1.877-0.77,2.177-1.501c0.094-0.244,0.15-0.544,0.15-0.845v-5.574h1.651V17.175z"/>
	<path fill="#FFFFFF" d="M38.377,13.402c0-1.069-0.019-1.989-0.075-2.834h1.445l0.057,1.783h0.074
		c0.413-1.22,1.408-1.989,2.516-1.989c0.188,0,0.319,0.019,0.469,0.056v1.559c-0.169-0.038-0.338-0.057-0.563-0.057
		c-1.164,0-1.989,0.882-2.215,2.121c-0.038,0.225-0.075,0.487-0.075,0.77v4.842h-1.633V13.402z"/>
	<path fill="#FFFFFF" d="M46.428,8.017c0.02,0.563-0.394,1.013-1.051,1.013c-0.582,0-0.994-0.45-0.994-1.013
		c0-0.582,0.432-1.032,1.032-1.032C46.034,6.984,46.428,7.435,46.428,8.017z M44.589,19.652v-9.084h1.651v9.084H44.589z"/>
	<path fill="#FFFFFF" d="M55.117,19.652L50.988,7.003h1.764l1.971,6.23c0.545,1.708,1.014,3.247,1.352,4.729h0.038
		c0.356-1.464,0.882-3.059,1.444-4.711l2.14-6.249h1.746l-4.523,12.649H55.117z"/>
	<path fill="#FFFFFF" d="M62.813,7.153c0.788-0.132,1.82-0.244,3.134-0.244c1.614,0,2.797,0.375,3.548,1.051
		c0.694,0.601,1.106,1.521,1.106,2.646c0,1.145-0.338,2.045-0.976,2.702c-0.863,0.92-2.271,1.389-3.866,1.389
		c-0.488,0-0.938-0.019-1.313-0.112v5.067h-1.633V7.153z M64.445,13.252c0.356,0.094,0.807,0.132,1.351,0.132
		c1.971,0,3.172-0.957,3.172-2.703c0-1.67-1.182-2.477-2.983-2.477c-0.714,0-1.258,0.056-1.539,0.131V13.252z"/>
	<path fill="#FFFFFF" d="M72.798,19.652V7.003h1.782l4.055,6.399c0.938,1.482,1.67,2.815,2.271,4.11l0.038-0.019
		c-0.15-1.689-0.188-3.229-0.188-5.199V7.003h1.539v12.649h-1.651l-4.017-6.419c-0.882-1.407-1.727-2.853-2.364-4.223l-0.057,0.019
		c0.094,1.596,0.132,3.115,0.132,5.218v5.405H72.798z"/>
</g>
</svg>
