<?xml version="1.0" encoding="utf-8"?>
<!-- Generator: Adobe Illustrator 16.0.0, SVG Export Plug-In . SVG Version: 6.00 Build 0)  -->
<!DOCTYPE svg PUBLIC "-//W3C//DTD SVG 1.1//EN" "http://www.w3.org/Graphics/SVG/1.1/DTD/svg11.dtd">
<svg version="1.1" id="Layer_1" xmlns="http://www.w3.org/2000/svg" xmlns:xlink="http://www.w3.org/1999/xlink" x="0px" y="0px"
	 width="64px" height="15px" viewBox="0 0 64 15" enable-background="new 0 0 64 15" xml:space="preserve">
<title>outline-logotype</title>
<desc>Created with Sketch.</desc>
<g id="Page-1">
	<g id="feedback---003" transform="translate(-140.000000, -44.000000)">
		<g id="outline-logotype" transform="translate(134.027344, 38.716797)">
			<rect id="Rectangle-2" x="2.185" y="-40.598" fill="none" width="76" height="24"/>
			<path id="Outline" fill="#FFFFFF" d="M14.752-21.533c-1.248,0-2.382-0.297-3.402-0.891s-1.821-1.406-2.403-2.439
				c-0.582-1.031-0.873-2.166-0.873-3.401c0-1.236,0.291-2.367,0.873-3.393s1.383-1.839,2.403-2.439s2.154-0.9,3.402-0.9
				c1.248,0,2.379,0.3,3.393,0.9c1.014,0.6,1.815,1.413,2.403,2.439s0.882,2.157,0.882,3.393c0,1.235-0.291,2.37-0.873,3.401
				c-0.582,1.033-1.383,1.846-2.403,2.439S16-21.533,14.752-21.533z M14.752-23.459c0.852,0,1.632-0.203,2.34-0.611
				s1.266-0.976,1.674-1.701c0.408-0.727,0.612-1.557,0.612-2.493c0-0.936-0.204-1.767-0.612-2.493
				c-0.408-0.726-0.966-1.293-1.674-1.701c-0.708-0.408-1.488-0.612-2.34-0.612c-0.852,0-1.632,0.204-2.34,0.612
				c-0.708,0.408-1.269,0.975-1.683,1.701c-0.414,0.726-0.621,1.557-0.621,2.493c0,0.937,0.207,1.767,0.621,2.493
				c0.414,0.726,0.975,1.293,1.683,1.701S13.9-23.459,14.752-23.459z M27.208-21.533c-1.116,0-1.965-0.332-2.547-0.998
				s-0.873-1.594-0.873-2.781v-5.688h1.98v5.418c0,0.744,0.177,1.302,0.531,1.675c0.354,0.371,0.819,0.558,1.395,0.558
				c0.468,0,0.882-0.123,1.242-0.369c0.36-0.246,0.636-0.573,0.828-0.981s0.288-0.846,0.288-1.313v-4.986h1.98v9.181H30.16v-1.188
				h-0.108c-0.252,0.433-0.642,0.786-1.17,1.062C28.354-21.671,27.796-21.533,27.208-21.533z M38.639-21.677
				c-0.408,0-0.792-0.065-1.152-0.198c-0.36-0.132-0.654-0.306-0.882-0.521c-0.516-0.516-0.774-1.219-0.774-2.106v-4.752h-1.602
				v-1.746h1.602v-2.592h1.98v2.592h2.232v1.746H37.81v4.32c0,0.491,0.096,0.84,0.288,1.044c0.18,0.24,0.492,0.359,0.936,0.359
				c0.204,0,0.384-0.026,0.54-0.08c0.156-0.055,0.324-0.142,0.504-0.262v1.926C39.682-21.767,39.202-21.677,38.639-21.677z
				 M42.473-34.709h1.979v12.889h-1.979V-34.709z M48.358-32.333c-0.372,0-0.687-0.129-0.945-0.387
				c-0.258-0.258-0.387-0.573-0.387-0.945c0-0.372,0.129-0.687,0.387-0.945c0.259-0.258,0.573-0.387,0.945-0.387
				s0.687,0.129,0.944,0.387c0.258,0.258,0.388,0.573,0.388,0.945c0,0.372-0.13,0.688-0.388,0.945S48.73-32.333,48.358-32.333z
				 M47.368-31.001h1.979v9.181h-1.979V-31.001z M52.264-31.001h1.891v1.206h0.09c0.264-0.432,0.657-0.789,1.18-1.071
				c0.521-0.282,1.076-0.423,1.664-0.423c1.116,0,1.965,0.327,2.547,0.981c0.582,0.654,0.873,1.545,0.873,2.673v5.814h-1.979v-5.545
				c0-0.72-0.177-1.248-0.531-1.583s-0.843-0.504-1.467-0.504c-0.444,0-0.84,0.123-1.188,0.369c-0.348,0.246-0.617,0.573-0.81,0.981
				c-0.192,0.407-0.288,0.846-0.288,1.313v4.969h-1.98V-31.001z M67.385-21.533c-0.9,0-1.707-0.209-2.422-0.629
				c-0.714-0.421-1.271-1-1.674-1.738c-0.402-0.737-0.604-1.568-0.604-2.492c0-0.876,0.195-1.689,0.586-2.439
				c0.39-0.75,0.933-1.347,1.629-1.791c0.695-0.444,1.488-0.666,2.376-0.666c0.924,0,1.725,0.204,2.403,0.612
				c0.678,0.408,1.193,0.966,1.547,1.674c0.354,0.708,0.531,1.507,0.531,2.394c0,0.168-0.018,0.379-0.054,0.631h-7.038
				c0.072,0.852,0.375,1.509,0.909,1.971s1.155,0.693,1.862,0.693c0.564,0,1.054-0.129,1.468-0.387
				c0.414-0.259,0.747-0.609,0.999-1.054l1.674,0.792c-0.432,0.756-0.996,1.35-1.691,1.782
				C69.19-21.749,68.356-21.533,67.385-21.533z M69.742-27.49c-0.023-0.325-0.126-0.646-0.307-0.963
				c-0.18-0.318-0.452-0.585-0.818-0.801c-0.366-0.216-0.813-0.324-1.341-0.324c-0.636,0-1.173,0.189-1.611,0.567
				s-0.741,0.885-0.909,1.521H69.742z"/>
		</g>
	</g>
</g>
<g>
	<path fill="#FFFFFF" d="M10.091,11.75H8.187L4.479,5.669v6.081H2.575V2.508h1.904l3.713,6.094V2.508h1.898V11.75z"/>
	<path fill="#FFFFFF" d="M13.741,10.271h3.358v1.479h-5.7v-1.117l3.231-4.266h-3.136V4.882h5.503v1.085L13.741,10.271z"/>
	<path fill="#FFFFFF" d="M22.361,11.052c-0.216,0.263-0.478,0.466-0.787,0.609s-0.673,0.216-1.092,0.216
		c-0.338,0-0.647-0.048-0.927-0.143c-0.279-0.096-0.52-0.246-0.72-0.451c-0.201-0.205-0.357-0.47-0.467-0.793
		c-0.11-0.324-0.165-0.712-0.165-1.165V4.882h1.834v4.456c0,0.19,0.024,0.354,0.073,0.488c0.049,0.136,0.117,0.245,0.203,0.327
		c0.087,0.083,0.189,0.144,0.308,0.181c0.119,0.039,0.25,0.058,0.394,0.058c0.33,0,0.599-0.058,0.806-0.171
		c0.208-0.115,0.366-0.273,0.476-0.477V4.882h1.841v6.868h-1.727L22.361,11.052z"/>
	<path fill="#FFFFFF" d="M29.381,6.602c-0.093-0.012-0.202-0.023-0.327-0.034c-0.125-0.011-0.236-0.017-0.333-0.017
		c-0.36,0-0.651,0.061-0.873,0.182c-0.223,0.12-0.386,0.295-0.492,0.523v4.494h-1.834V4.882h1.733l0.051,0.819
		c0.173-0.297,0.387-0.528,0.641-0.695s0.55-0.251,0.889-0.251c0.097,0,0.2,0.009,0.308,0.025c0.107,0.017,0.195,0.036,0.263,0.058
		L29.381,6.602z"/>
	<path fill="#FFFFFF" d="M30.25,3.104c0-0.275,0.093-0.501,0.276-0.679c0.185-0.178,0.435-0.268,0.753-0.268
		c0.156,0,0.298,0.023,0.425,0.07s0.235,0.112,0.323,0.197c0.09,0.084,0.158,0.185,0.207,0.301s0.072,0.242,0.072,0.378
		c0,0.14-0.023,0.268-0.072,0.384s-0.117,0.217-0.207,0.302c-0.088,0.085-0.196,0.15-0.323,0.196
		c-0.127,0.047-0.269,0.07-0.425,0.07c-0.157,0-0.299-0.023-0.426-0.07c-0.127-0.046-0.234-0.111-0.324-0.196
		c-0.088-0.085-0.157-0.186-0.206-0.302S30.25,3.244,30.25,3.104z M32.199,11.75h-1.841V4.882h1.841V11.75z"/>
	<path fill="#FFFFFF" d="M40.483,9.459l2.095-6.951h2.12l-3.219,9.242h-1.986l-3.205-9.242h2.113L40.483,9.459z"/>
	<path fill="#FFFFFF" d="M47.472,8.494v3.256h-1.904V2.508h3.605c0.546,0,1.033,0.076,1.463,0.229s0.794,0.365,1.092,0.638
		c0.299,0.273,0.526,0.597,0.683,0.972c0.156,0.374,0.234,0.781,0.234,1.222c0,0.448-0.078,0.853-0.234,1.212
		c-0.156,0.36-0.384,0.667-0.683,0.921c-0.298,0.254-0.662,0.449-1.092,0.587s-0.917,0.207-1.463,0.207H47.472z M47.472,6.951h1.701
		c0.271,0,0.505-0.034,0.701-0.102c0.197-0.067,0.357-0.162,0.482-0.282c0.125-0.121,0.217-0.266,0.276-0.435
		c0.06-0.17,0.089-0.354,0.089-0.553s-0.029-0.391-0.089-0.574c-0.06-0.185-0.151-0.348-0.276-0.489s-0.285-0.255-0.482-0.339
		c-0.196-0.085-0.431-0.127-0.701-0.127h-1.701V6.951z"/>
	<path fill="#FFFFFF" d="M61.469,11.75h-1.904l-3.707-6.081v6.081h-1.904V2.508h1.904l3.714,6.094V2.508h1.897V11.75z"/>
</g>
</svg>
