<?xml version="1.0"?>
<svg xmlns="http://www.w3.org/2000/svg" viewBox="0 0 64 64" width="512px" height="512px"><g><g id="Database_network" data-name="Database network"><path d="M57.905,33.887A26,26,0,0,0,44,12.95V6c0-3.158-7.543-4-12-4S20,2.842,20,6v6.95A26,26,0,0,0,6.1,33.88C3.77,34.491,2,35.473,2,37V52c0,3.158,7.543,4,12,4,.433,0,.9-.011,1.381-.028a25.923,25.923,0,0,0,33.238,0c.481.017.948.028,1.381.028,4.457,0,12-.842,12-4V37C62,35.645,60.612,34.6,57.905,33.887Zm2.1,13.071C59.727,47.67,56.043,49,50,49s-9.727-1.33-10-2V44.378C42.547,45.61,46.979,46,50,46a37.455,37.455,0,0,0,5.633-.412,16.258,16.258,0,0,0,4.37-1.2Zm0-5c-.082.21-1.116,1.1-4.679,1.655A35.381,35.381,0,0,1,50,44c-6.049,0-9.729-1.329-10-2V39.378C42.547,40.61,46.979,41,50,41a34.166,34.166,0,0,0,6.975-.661A13.516,13.516,0,0,0,60,39.387ZM59.984,37c-.158.239-1.008.876-3.423,1.382A32.64,32.64,0,0,1,50,39c-6.025,0-9.7-1.318-10-1.951v-.017C40.3,36.318,43.975,35,50,35a32.459,32.459,0,0,1,6.751.656C59.027,36.165,59.832,36.772,59.984,37ZM42.006,20.958C41.727,21.67,38.043,23,32,23s-9.727-1.33-10-2V18.378C24.547,19.61,28.979,20,32,20s7.457-.39,10-1.624ZM22,13.378C24.547,14.61,28.979,15,32,15s7.457-.39,10-1.624v.111a.147.147,0,0,1,0,.021l0,2.45C41.727,16.67,38.043,18,32,18s-9.727-1.33-10-2Zm20.006-2.42C41.727,11.67,38.043,13,32,13s-9.727-1.33-10-2V8.378C24.547,9.61,28.979,10,32,10s7.457-.39,10-1.624ZM32,4c5.925,0,9.582,1.278,9.986,2-.4.722-4.061,2-9.986,2-6.017,0-9.692-1.318-10-1.949V6.033C22.308,5.318,25.983,4,32,4ZM14,35c5.925,0,9.582,1.278,9.986,2-.4.722-4.061,2-9.986,2-6.017,0-9.692-1.318-10-1.949v-.018C4.308,36.318,7.983,35,14,35ZM4,44.385a16.271,16.271,0,0,0,4.367,1.2A37.455,37.455,0,0,0,14,46c3.022,0,7.457-.39,10-1.624l0,2.583C23.729,47.671,20.049,49,14,49c-.992,0-1.875-.032-2.71-.1C6.158,48.544,4.146,47.353,4,47Zm20-5.009,0,2.583C23.729,42.671,20.049,44,14,44a35.381,35.381,0,0,1-5.327-.388C5.11,43.061,4.076,42.167,4,42V39.378C6.547,40.61,10.979,41,14,41S21.457,40.61,24,39.376ZM4,52V49.389A22.093,22.093,0,0,0,11.142,50.9c.878.069,1.813.1,2.858.1,3.022,0,7.457-.39,10-1.624l0,2.582C23.727,52.67,20.043,54,14,54S4.273,52.67,4,52Zm28,8a23.982,23.982,0,0,1-13.609-4.251C22.194,55.314,26,54.243,26,52V37c0-3.158-7.543-4-12-4a37.97,37.97,0,0,0-5.861.452A24.015,24.015,0,0,1,20,15.215V21c0,3.158,7.543,4,12,4s12-.842,12-4V15.215A24.014,24.014,0,0,1,55.861,33.457,36.111,36.111,0,0,0,50,33c-4.457,0-12,.842-12,4V52c0,2.243,3.806,3.314,7.609,3.749A23.982,23.982,0,0,1,32,60Zm18-6c-.568,0-1.108-.015-1.633-.037h0C43.3,53.752,40.248,52.607,40,52V49.378C42.547,50.61,46.979,51,50,51s7.457-.39,10-1.624l0,2.582C59.727,52.67,56.043,54,50,54Z" data-original="#000000" class="active-path" data-old_color="#000000" fill="#4793A3"/></g></g> </svg>
